<svg width="214" height="163" viewBox="0 0 214 163" fill="none" xmlns="http://www.w3.org/2000/svg">
<g clip-path="url(#clip0_120_1212)">
<path d="M85.6346 15.7225C83.0273 20.2312 87.9368 27.8281 82.9888 29.4056L83.3965 28.9964C86.3832 25.3087 80.1405 17.5034 83.1273 13.8156C83.5913 13.2746 83.9897 12.6802 84.314 12.0449" fill="#2F2E41"/>
<path d="M110.053 81.8675C110.138 81.4164 110.124 80.9519 110.011 80.5067C109.899 80.0616 109.69 79.6467 109.401 79.2912C109.111 78.9358 108.747 78.6484 108.335 78.4494C107.922 78.2503 107.472 78.1444 107.014 78.1392L100.569 59.3438L97.002 63.9081L103.816 81.4703C103.858 82.2424 104.181 82.9721 104.723 83.5212C105.266 84.0703 105.99 84.4007 106.759 84.4496C107.527 84.4986 108.287 84.2628 108.894 83.7869C109.502 83.311 109.914 82.6281 110.053 81.8675L110.053 81.8675Z" fill="#FFB8B8"/>
<path d="M81.7234 36.4882C81.7234 36.4882 81.5229 29.6845 87.584 33.5821C93.645 37.4796 106.842 73.9904 106.842 73.9904L100.274 77.5569L85.3661 44.1455L81.7234 36.4882Z" fill="#CB334B"/>
<path d="M99.6049 153.099L96.5783 154.397L90.1494 143.297L94.6166 141.381L99.6049 153.099Z" fill="#FFB6B6"/>
<path d="M103.443 157.679L101.272 158.61L100.009 156.719L99.8926 159.202L94.136 161.671C93.8601 161.789 93.5537 161.816 93.2616 161.747C92.9694 161.678 92.7069 161.518 92.5122 161.288C92.3175 161.059 92.2009 160.774 92.1794 160.473C92.1579 160.173 92.2327 159.873 92.3927 159.618L95.6331 154.46L94.7478 152.38L99.7064 150.596L103.443 157.679Z" fill="#2F2E41"/>
<path d="M52.1599 156.864L48.8727 156.703L47.9277 143.898L52.7798 144.136L52.1599 156.864Z" fill="#FFB6B6"/>
<path d="M53.6172 162.668L51.2597 162.553L50.9477 160.298L49.7612 162.479L43.5085 162.172C43.2088 162.158 42.9216 162.047 42.6889 161.857C42.4561 161.667 42.29 161.407 42.2148 161.116C42.1396 160.824 42.1592 160.516 42.2708 160.236C42.3824 159.957 42.5801 159.72 42.8351 159.561L47.9968 156.345L48.1068 154.086L53.3434 154.658L53.6172 162.668Z" fill="#2F2E41"/>
<path d="M149.02 154.825C149.238 154.833 149.453 154.773 149.636 154.654C149.819 154.536 149.961 154.363 150.043 154.161C150.125 153.958 150.143 153.735 150.095 153.522C150.047 153.309 149.934 153.115 149.773 152.968C149.745 152.862 149.725 152.785 149.697 152.679C149.9 152.145 150.258 151.685 150.723 151.357C151.189 151.029 151.741 150.848 152.31 150.837C152.878 150.827 153.437 150.986 153.914 151.297C154.392 151.607 154.766 152.053 154.99 152.578C156.277 155.525 157.936 158.573 157.156 161.84C162.403 150.397 160.447 136.245 152.442 126.579C150.243 125.391 148.45 123.259 147.965 120.768C149.051 121.126 150.392 120.229 149.567 119.093C149.21 118.659 148.85 118.228 148.493 117.794C152.563 113.359 157.528 120.221 153.059 126.197C154.557 128.046 155.858 130.048 156.942 132.169C156.675 129.908 156.946 127.616 157.734 125.481C158.534 123.491 160.052 121.807 161.387 120.08C163.01 117.977 166.401 118.908 166.647 121.555C165.135 122.07 164.959 124.27 166.697 124.555C166.289 129.488 163.124 134.049 158.725 136.253C160.401 140.834 161.084 145.72 160.731 150.587C161.457 144.896 167.521 143.459 171.747 141.16C172.016 140.983 172.33 140.889 172.651 140.888C172.972 140.888 173.287 140.981 173.556 141.157C173.825 141.333 174.037 141.583 174.167 141.878C174.297 142.173 174.338 142.5 174.286 142.818C173.702 143.063 173.144 143.365 172.62 143.721C172.374 143.89 172.186 144.132 172.083 144.412C171.979 144.693 171.964 144.998 172.041 145.287C172.117 145.577 172.28 145.835 172.509 146.027C172.737 146.22 173.019 146.336 173.316 146.361C171.225 151.701 165.724 155.326 160.038 155.36C159.514 157.749 158.745 160.076 157.742 162.305L149.303 162.385C149.272 162.292 149.244 162.195 149.216 162.101C149.997 162.143 150.781 162.088 151.549 161.939C149.46 159.503 147.85 158.265 149.02 154.825L149.02 154.825Z" fill="#CED0D6"/>
<path d="M60.4641 73.6286C60.4641 73.6286 53.779 91.9164 53.671 93.9629C53.563 96.0095 51.6565 121.889 50.0576 123.393C48.4586 124.896 43.5702 148.209 47.3739 150.032C51.1775 151.856 63.1778 148.835 63.1778 148.835L67.3524 121.297L68.7706 100.2C68.7706 100.2 73.088 149.88 80.9185 149.734C88.7491 149.588 98.2911 146.595 98.2911 146.595L87.331 116.508C87.331 116.508 87.4859 80.8892 84.9455 73.7051C82.405 66.5209 60.4641 73.6286 60.4641 73.6286Z" fill="#2F2E41"/>
<path d="M80.3011 26.5117L71.3482 27.3349L69.9059 31.7792C69.9059 31.7792 62.4136 35.9095 64.0726 37.786C65.7317 39.6624 63.7017 52.308 63.7017 52.308L64.1602 62.5727C64.1602 62.5727 63.6676 69.6842 62.1937 71.3227C60.7198 72.9613 56.8637 76.9792 59.5883 75.0569C69.1418 68.3169 85.8403 74.004 85.8403 74.004L83.4548 59.3372C83.4548 59.3372 88.8731 35.3241 86.7348 33.2961C84.5965 31.2681 82.579 31.0118 82.579 31.0118L80.3011 26.5117Z" fill="#CB334B"/>
<path d="M33.2582 73.0359C33.708 72.9518 34.134 72.7697 34.5061 72.5025C34.8782 72.2353 35.1874 71.8895 35.412 71.4893C35.6366 71.0892 35.771 70.6445 35.8058 70.1866C35.8407 69.7286 35.775 69.2686 35.6136 68.8389L50.7136 55.9793L45.1809 54.3027L31.3596 67.0593C30.6584 67.3794 30.0985 67.9466 29.7861 68.6534C29.4736 69.3602 29.4303 70.1574 29.6644 70.8941C29.8984 71.6308 30.3935 72.2557 31.0559 72.6505C31.7182 73.0452 32.5018 73.1823 33.2582 73.0359Z" fill="#FFB8B8"/>
<path d="M71.6064 39.3988C71.6064 39.3988 74.5815 33.2823 67.4591 34.3271C60.3366 35.3719 33.3271 63.1826 33.3271 63.1826L37.8472 69.1483L65.1445 44.8696L71.6064 39.3988Z" fill="#CB334B"/>
<path d="M60.0082 29.0242L31.7692 65.3398C31.2807 65.9701 31.061 66.7691 31.1583 67.5616C31.2556 68.3542 31.662 69.0758 32.2883 69.5682C38.8462 85.5516 58.4654 97.4041 81.5447 108.162C82.1724 108.653 82.9685 108.874 83.7583 108.776C84.548 108.679 85.2669 108.27 85.7571 107.641L113.996 71.3255C114.485 70.6954 114.705 69.8963 114.608 69.1035C114.51 68.3108 114.104 67.5892 113.477 67.0971C94.1091 56.1192 77.4624 43.4003 64.2206 28.5031C63.5927 28.0127 62.7967 27.7922 62.0071 27.8899C61.2176 27.9875 60.4988 28.3954 60.0082 29.0242Z" fill="#E6E6E6"/>
<path d="M112.014 70.4982L103.418 81.5523C98.1675 88.2642 90.4841 92.6175 82.0463 93.6613C73.6085 94.7052 65.1021 92.3547 58.3851 87.1233L34.2961 68.2488C33.9393 67.9691 33.7075 67.5587 33.6517 67.1077C33.5959 66.6567 33.7206 66.2018 33.9984 65.843L61.2859 30.7511C61.5652 30.3935 61.9745 30.1616 62.4239 30.1064C62.8733 30.0513 63.3262 30.1773 63.6831 30.4569C75.8686 46.2519 92.1799 58.5435 111.719 68.0945C112.075 68.3742 112.306 68.7844 112.361 69.2351C112.417 69.6857 112.292 70.14 112.014 70.4982Z" fill="white"/>
<path d="M59.4442 48.8489L53.8462 56.0479C53.6976 56.2386 53.4797 56.3623 53.2404 56.3918C53.001 56.4213 52.7598 56.3542 52.5697 56.2052C52.3796 56.0563 52.2562 55.8377 52.2266 55.5975C52.197 55.3572 52.2636 55.115 52.4118 54.9241L58.0098 47.725C58.0833 47.6304 58.1746 47.5512 58.2786 47.4919C58.3826 47.4327 58.4972 47.3947 58.6158 47.38C58.7344 47.3652 58.8548 47.3741 58.97 47.4061C59.0852 47.4381 59.1931 47.4926 59.2873 47.5664C59.3815 47.6402 59.4603 47.732 59.5192 47.8364C59.5781 47.9408 59.6159 48.0559 59.6305 48.175C59.6451 48.2941 59.6361 48.4149 59.6041 48.5305C59.5722 48.6462 59.5178 48.7543 59.4442 48.8489H59.4442Z" fill="#CCCCCC"/>
<path d="M69.945 43.5076L57.6514 59.3173C57.5779 59.4118 57.4865 59.4909 57.3826 59.55C57.2786 59.6091 57.1641 59.6471 57.0455 59.6618C56.9269 59.6764 56.8066 59.6675 56.6915 59.6355C56.5763 59.6035 56.4686 59.5491 56.3744 59.4753C56.2802 59.4015 56.2014 59.3098 56.1426 59.2054C56.0837 59.1011 56.0459 58.9861 56.0312 58.8671C56.0166 58.7481 56.0255 58.6273 56.0574 58.5117C56.0893 58.3961 56.1435 58.288 56.217 58.1935L68.5106 42.3838C68.5841 42.289 68.6754 42.2097 68.7794 42.1504C68.8834 42.0911 68.998 42.053 69.1167 42.0382C69.2354 42.0234 69.3558 42.0323 69.4711 42.0643C69.5864 42.0962 69.6943 42.1507 69.7886 42.2246C69.8828 42.2985 69.9617 42.3903 70.0206 42.4948C70.0795 42.5993 70.1173 42.7144 70.1318 42.8336C70.1463 42.9527 70.1373 43.0736 70.1053 43.1893C70.0732 43.3049 70.0188 43.4131 69.945 43.5076H69.945Z" fill="#CCCCCC"/>
<path d="M48.9777 69.878C52.2872 69.878 54.97 67.1849 54.97 63.8628C54.97 60.5407 52.2872 57.8477 48.9777 57.8477C45.6682 57.8477 42.9854 60.5407 42.9854 63.8628C42.9854 67.1849 45.6682 69.878 48.9777 69.878Z" fill="#CB334B"/>
<path d="M70.5977 56.0025L55.4987 75.42C55.3411 75.581 55.13 75.6783 54.9056 75.6931C54.6812 75.708 54.4592 75.6394 54.2819 75.5005C54.1047 75.3616 53.9845 75.1621 53.9444 74.94C53.9043 74.7178 53.947 74.4887 54.0644 74.2961L69.1634 54.8787C69.321 54.7176 69.5321 54.6204 69.7565 54.6055C69.9809 54.5907 70.2029 54.6592 70.3802 54.7981C70.5574 54.937 70.6776 55.1365 70.7177 55.3587C70.7579 55.5808 70.7151 55.81 70.5977 56.0025Z" fill="#CCCCCC"/>
<path d="M80.3926 51.5689L59.3181 78.671C59.1605 78.832 58.9494 78.9293 58.725 78.9441C58.5006 78.959 58.2786 78.8904 58.1013 78.7515C57.924 78.6126 57.8038 78.4131 57.7637 78.191C57.7236 77.9688 57.7663 77.7397 57.8837 77.5471L78.9583 50.4451C79.1158 50.284 79.3269 50.1868 79.5513 50.1719C79.7757 50.1571 79.9977 50.2256 80.175 50.3645C80.3523 50.5034 80.4725 50.703 80.5126 50.9251C80.5527 51.1472 80.51 51.3764 80.3926 51.5689Z" fill="#CCCCCC"/>
<path d="M80.3194 63.6197L65.2204 83.0371C65.0628 83.1982 64.8517 83.2954 64.6273 83.3103C64.4029 83.3252 64.1809 83.2566 64.0036 83.1177C63.8263 82.9788 63.7062 82.7793 63.6661 82.5571C63.6259 82.335 63.6686 82.1058 63.786 81.9133L78.8851 62.4958C79.0427 62.3348 79.2538 62.2376 79.4782 62.2227C79.7026 62.2078 79.9246 62.2764 80.1018 62.4153C80.2791 62.5542 80.3993 62.7537 80.4394 62.9759C80.4795 63.198 80.4368 63.4272 80.3194 63.6197Z" fill="#CCCCCC"/>
<path d="M100.298 66.0142L85.1989 85.4317C85.0413 85.5928 84.8302 85.69 84.6058 85.7048C84.3814 85.7197 84.1594 85.6511 83.9821 85.5122C83.8049 85.3733 83.6847 85.1738 83.6446 84.9517C83.6045 84.7296 83.6472 84.5004 83.7646 84.3078L98.8636 64.8904C99.0211 64.7293 99.2323 64.6321 99.4567 64.6172C99.6811 64.6024 99.9031 64.6709 100.08 64.8098C100.258 64.9487 100.378 65.1483 100.418 65.3704C100.458 65.5925 100.415 65.8217 100.298 66.0142Z" fill="#CB334B"/>
<path d="M90.1143 59.1881L69.0397 86.2901C68.8822 86.4512 68.671 86.5484 68.4466 86.5632C68.2222 86.5781 68.0002 86.5096 67.823 86.3706C67.6457 86.2317 67.5255 86.0322 67.4854 85.8101C67.4453 85.588 67.488 85.3588 67.6054 85.1662L88.6799 58.0642C88.8375 57.9031 89.0486 57.8059 89.273 57.7911C89.4974 57.7762 89.7194 57.8448 89.8967 57.9837C90.074 58.1226 90.1941 58.3221 90.2342 58.5442C90.2744 58.7663 90.2317 58.9955 90.1143 59.1881Z" fill="#CCCCCC"/>
<path d="M65.291 15.04C65.2905 16.5011 65.6473 17.9401 66.3301 19.2306C67.0129 20.521 68.0008 21.6235 69.2072 22.4412C70.4136 23.2589 71.8015 23.7669 73.249 23.9205C74.6966 24.0741 76.1596 23.8686 77.5096 23.3221C78.8597 22.7757 80.0554 21.9049 80.9919 20.7862C81.9284 19.6676 82.577 18.3353 82.8808 16.9063C83.1846 15.4772 83.1343 13.9952 82.7343 12.5903C82.3343 11.1853 81.5968 9.90045 80.5866 8.84839L80.5439 8.80559C80.4728 8.73058 80.4016 8.65561 80.3269 8.58417C80.3265 8.58417 80.326 8.58409 80.3256 8.58391C80.3251 8.58373 80.3247 8.58347 80.3244 8.58314C80.3241 8.58281 80.3238 8.58241 80.3236 8.58197C80.3235 8.58153 80.3234 8.58107 80.3234 8.5806C80.2309 8.4949 80.1384 8.40921 80.0424 8.32709C78.7574 7.19621 77.1749 6.46106 75.4844 6.20965C73.7939 5.95824 72.0671 6.20123 70.5106 6.90952C68.9542 7.61781 67.6341 8.76139 66.7084 10.2033C65.7827 11.6453 65.2906 13.3245 65.291 15.04V15.04Z" fill="#2F2E41"/>
<path d="M76.3749 24.5899C80.4933 24.5899 83.8319 21.2386 83.8319 17.1045C83.8319 12.9705 80.4933 9.61914 76.3749 9.61914C72.2566 9.61914 68.918 12.9705 68.918 17.1045C68.918 21.2386 72.2566 24.5899 76.3749 24.5899Z" fill="#FFB8B8"/>
<path d="M68.4256 19.0991C67.6968 15.8019 68.7503 12.1079 71.0473 9.90665C72.2026 8.8214 73.6394 8.08537 75.1928 7.78314C76.7461 7.4809 78.3528 7.62474 79.8284 8.19812C80.0159 8.27411 80.2034 8.35728 80.3875 8.44409L80.4731 8.48458V8.49715C80.4897 8.50869 80.5063 8.52082 80.5229 8.5331C80.5576 8.56581 80.6 8.58927 80.6461 8.60135C81.2936 8.58434 81.9373 8.70487 82.5351 8.95503C83.133 9.20519 83.6714 9.57933 84.1151 10.0529C85.2709 11.3118 85.8151 13.3461 85.6483 15.7811L85.643 15.8573L85.5784 15.8978C84.7034 16.4544 83.7954 16.9569 82.8595 17.4026C79.5858 18.9477 76.5972 19.234 73.7249 18.2767L73.6722 18.2592L72.4666 16.231C72.2191 17.6298 72.3513 22.2697 70.9311 22.5211L68.4565 19.239L68.4256 19.0991Z" fill="#2F2E41"/>
<path d="M52.7281 25.6167C55.2657 24.302 52.002 19.5302 52.6578 16.7402C53.3137 13.9503 58.0362 13.053 58.3371 10.2024C58.6379 7.35176 59.3457 4.41167 61.2196 2.24861C62.417 0.86642 64.1814 -0.153963 65.998 0.0191652C66.6127 0.0777407 67.2075 0.268603 67.742 0.578751C68.2766 0.8889 68.7383 1.31105 69.0956 1.81645C69.453 2.32185 69.6976 2.89861 69.8129 3.50747C69.9281 4.11634 69.9113 4.74299 69.7636 5.34474C70.2808 4.60908 71.6193 4.76852 71.9507 5.60531C72.2452 6.34921 71.5945 7.25029 70.8287 7.31611C69.8267 8.5583 68.6792 9.87659 67.1094 10.1272C66.8592 10.1848 66.5993 10.1847 66.3493 10.1267C66.0992 10.0688 65.8656 9.9546 65.6659 9.79273C65.2966 9.43671 65.2679 8.72493 65.706 8.45887C63.7331 9.24554 62.5765 11.3867 62.2837 13.4973C61.991 15.6078 62.396 17.7432 62.6629 19.8572C62.9297 21.9712 63.0447 24.195 62.219 26.1581C61.2434 28.4775 58.9972 30.1398 56.5459 30.673C54.0946 31.2061 51.484 30.685 49.2652 29.5112C47.0464 28.3372 45.1961 26.545 43.6846 24.5358C46.2883 26.3917 49.8905 27.087 52.7281 25.6167Z" fill="#2F2E41"/>
<path d="M72.8133 16.621C70.206 21.1297 75.1155 28.7265 70.1675 30.3041L70.5752 29.8949C73.5619 26.2071 67.3192 18.4018 70.306 14.714C70.77 14.1731 71.1684 13.5787 71.4927 12.9434" fill="#2F2E41"/>
<path d="M68.7734 19.0309C68.7734 19.0309 70.9824 10.7542 80.4515 8.84381C80.4621 8.84029 80.4977 8.82599 80.5439 8.80459C80.5724 8.78672 80.608 8.76885 80.6435 8.75101C80.5368 8.69029 80.4337 8.63676 80.3269 8.58315C80.3265 8.58316 80.326 8.58307 80.3256 8.58289C80.3251 8.58272 80.3247 8.58246 80.3244 8.58212C80.3241 8.58179 80.3238 8.58139 80.3237 8.58095C80.3235 8.58052 80.3234 8.58005 80.3234 8.57958C80.2309 8.49388 80.1384 8.40819 80.0424 8.32607L79.772 8.3368C79.772 8.3368 70.271 6.82643 68.7734 19.0309Z" fill="#FD6584"/>
<path d="M1.57936e-06 162.643C-0.000137792 162.69 0.00894841 162.737 0.0267327 162.78C0.044517 162.823 0.0706519 162.862 0.103632 162.895C0.136612 162.929 0.175784 162.955 0.218901 162.973C0.262017 162.991 0.308224 163 0.354863 162.999H213.645C213.739 162.999 213.83 162.962 213.896 162.895C213.963 162.828 214 162.738 214 162.643C214 162.549 213.963 162.458 213.896 162.391C213.83 162.325 213.739 162.287 213.645 162.287H0.354845C0.308208 162.287 0.262005 162.296 0.218892 162.314C0.175778 162.332 0.136605 162.358 0.103627 162.391C0.0706497 162.424 0.0445165 162.464 0.0267327 162.507C0.00894883 162.55 -0.000135802 162.596 1.57936e-06 162.643Z" fill="#CCCCCC"/>
</g>
<defs>
<clipPath id="clip0_120_1212">
<rect width="214" height="163" fill="white"/>
</clipPath>
</defs>
</svg>
