<svg width="34" height="29" viewBox="0 0 34 29" fill="none" xmlns="http://www.w3.org/2000/svg">
<path d="M0.50002 9.91177C0.509171 5.6704 3.67246 2.03737 8.00875 1.33592L8.01021 1.33568C10.825 0.87179 13.8057 1.78208 15.8546 3.77382L15.8552 3.77438L16.6521 4.54653L17.0138 4.89707L17.3617 4.5327L18.0899 3.7699C20.2013 1.77789 23.122 0.87238 25.9914 1.33593C30.3352 2.0384 33.5 5.68088 33.5 9.93022V10.304C33.5 12.8355 32.4192 15.2601 30.5039 16.9907L30.5033 16.9912L18.5038 27.8644C18.0993 28.2307 17.5621 28.4375 17 28.4375C16.4379 28.4375 15.9007 28.2307 15.4962 27.8644L3.496 16.9911L3.49572 16.9909C1.58268 15.2601 0.50002 12.8353 0.50002 10.304V9.91177Z" stroke="black"/>
</svg>
