<svg width="20" height="20" viewBox="0 0 20 20" fill="none" xmlns="http://www.w3.org/2000/svg">
<path d="M6.875 10C6.875 8.27344 8.27344 6.875 10 6.875C11.7266 6.875 13.125 8.27344 13.125 10C13.125 11.7266 11.7266 13.125 10 13.125C8.27344 13.125 6.875 11.7266 6.875 10ZM10 0C10.6914 0 11.25 0.559766 11.25 1.25V2.60352C14.3906 3.13047 16.8711 5.60938 17.3945 8.75H18.75C19.4414 8.75 20 9.30859 20 10C20 10.6914 19.4414 11.25 18.75 11.25H17.3945C16.8711 14.3906 14.3906 16.8711 11.25 17.3945V18.75C11.25 19.4414 10.6914 20 10 20C9.30859 20 8.75 19.4414 8.75 18.75V17.3945C5.60938 16.8711 3.13047 14.3906 2.60352 11.25H1.25C0.559766 11.25 0 10.6914 0 10C0 9.30859 0.559766 8.75 1.25 8.75H2.60352C3.13047 5.60938 5.60938 3.13047 8.75 2.60352V1.25C8.75 0.559766 9.30859 0 10 0ZM5 10C5 12.7617 7.23828 15 10 15C12.7617 15 15 12.7617 15 10C15 7.23828 12.7617 5 10 5C7.23828 5 5 7.23828 5 10Z" fill="black"/>
</svg>
