<svg width="16" height="19" viewBox="0 0 16 19"  fill="none" xmlns="http://www.w3.org/2000/svg">
<path d="M7.10425 0.499255C5.9796 0.585852 4.87169 1.11063 4.11096 1.92415C2.37211 3.76514 2.44578 6.57718 4.27587 8.30269C5.2358 9.20725 6.4514 9.65773 7.74347 9.58977C9.7166 9.48585 11.3597 8.23955 11.9581 6.38994C12.1241 5.87129 12.1737 5.4863 12.1447 4.83095C12.1113 3.97365 11.9071 3.32253 11.442 2.59204C11.184 2.18494 10.5322 1.52731 10.1228 1.26158C9.21045 0.669366 8.20166 0.412725 7.10425 0.499255ZM8.27805 1.32708C8.99851 1.47011 9.69621 1.83421 10.2152 2.33594C11.6981 3.76889 11.7666 6.097 10.3655 7.59419C9.90359 8.08309 9.39067 8.40825 8.73733 8.62325C6.89787 9.22603 4.93402 8.43063 4.05761 6.73326C3.07557 4.83038 3.90236 2.51912 5.89279 1.6035C6.18436 1.46941 6.66274 1.32724 6.95065 1.28462C7.27748 1.23809 7.94702 1.2593 8.27805 1.32708Z" fill="black"/>
<path d="M6.60535 10.8046C4.39129 11.0806 2.52598 12.2323 1.29312 14.0835C0.533241 15.2248 0.0431901 16.8341 0.0467756 18.1793C0.0477101 18.5298 0.0516533 18.5489 0.160926 18.6553L0.2741 18.7656L7.54904 18.7477L14.824 18.7298L14.9365 18.6152C15.0452 18.5044 15.0452 18.4968 15.0364 18.0929C14.9912 15.7685 13.8565 13.5572 12.0118 12.2013C10.4752 11.0695 8.5237 10.5675 6.60535 10.8046ZM7.97357 11.5444C9.15709 11.6253 10.2245 11.9656 11.1447 12.554C12.9305 13.7005 14.0175 15.5231 14.2297 17.729L14.2536 17.9691L7.53922 17.9856L0.824793 18.0021L0.84766 17.8191C0.938874 16.9919 1.03111 16.5497 1.23585 15.9623C2.1089 13.4718 4.36192 11.7438 6.99659 11.5506C7.2223 11.531 7.41298 11.5153 7.42466 11.5152C7.43633 11.5114 7.68159 11.526 7.97357 11.5444Z" fill="black"/>
</svg>
