<svg width="668" height="582" viewBox="0 0 668 582" fill="none" xmlns="http://www.w3.org/2000/svg">
<g clip-path="url(#clip0_25_528)">
<path d="M574.955 147H492.955C486.062 147 480.455 141.393 480.455 134.5V52.5C480.455 45.6074 486.062 40 492.955 40H574.955C581.848 40 587.455 45.6074 587.455 52.5V134.5C587.455 141.393 581.848 147 574.955 147ZM492.955 42C487.156 42 482.455 46.701 482.455 52.5V134.5C482.455 140.299 487.156 145 492.955 145H550.394C569.758 145 585.455 129.303 585.455 109.939V52.5C585.455 46.701 580.754 42 574.955 42H492.955Z" fill="#F2F2F2"/>
<path d="M574.955 147H492.955C486.062 147 480.455 141.393 480.455 134.5V52.5C480.455 45.6074 486.062 40 492.955 40H574.955C581.848 40 587.455 45.6074 587.455 52.5V134.5C587.455 141.393 581.848 147 574.955 147Z" fill="#DC3545"/>
<path d="M533.455 22C539.53 22 544.455 17.0751 544.455 11C544.455 4.92487 539.53 0 533.455 0C527.38 0 522.455 4.92487 522.455 11C522.455 17.0751 527.38 22 533.455 22Z" fill="#757575"/>
<path d="M467.484 308.713H385.484C378.592 308.713 372.984 303.105 372.984 296.213V214.213C372.984 207.32 378.592 201.713 385.484 201.713H467.484C474.377 201.713 479.984 207.32 479.984 214.213V296.213C479.984 303.105 474.377 308.713 467.484 308.713ZM385.484 203.713C379.685 203.713 374.984 208.414 374.984 214.213V296.213C374.984 302.012 379.685 306.713 385.484 306.713H385.484C436.571 306.713 477.984 265.299 477.984 214.213V214.213C477.984 208.414 473.283 203.713 467.484 203.713H385.484Z" fill="#757575"/>
<path d="M425.984 183.713C432.06 183.713 436.984 178.788 436.984 172.713C436.984 166.638 432.06 161.713 425.984 161.713C419.909 161.713 414.984 166.638 414.984 172.713C414.984 178.788 419.909 183.713 425.984 183.713Z" fill="#757575"/>
<path d="M429.338 249.69C425.651 250.67 421.361 248.172 420.583 244.375C419.774 240.429 423.266 236.143 427.283 236.113C431.361 236.084 434.886 240.191 434.223 244.202C433.803 246.747 432.231 248.965 430.805 251.046C429.216 253.365 427.554 255.634 425.841 257.863C421.967 262.905 417.833 267.742 413.709 272.58C412.831 273.61 413.446 275.02 414.769 275.141L438.234 277.288C440.156 277.464 440.144 274.462 438.234 274.288L414.769 272.141L415.83 274.701C420.374 269.371 424.912 264.031 429.142 258.446C431.166 255.774 433.209 253.062 434.949 250.194C436.481 247.67 437.642 244.79 437.2 241.791C436.438 236.619 431.297 232.466 426.053 233.22C420.844 233.968 416.827 239.296 417.578 244.506C418.402 250.224 424.65 254.041 430.135 252.583C431.999 252.087 431.209 249.193 429.338 249.69Z" fill="#757575"/>
<path d="M654.955 409H572.955C566.062 409 560.455 403.393 560.455 396.5V314.5C560.455 307.607 566.062 302 572.955 302H654.955C661.848 302 667.455 307.607 667.455 314.5V396.5C667.455 403.393 661.848 409 654.955 409ZM572.955 304C567.156 304 562.455 308.701 562.455 314.5V396.5C562.455 402.299 567.156 407 572.955 407H572.955C624.041 407 665.455 365.586 665.455 314.5V314.5C665.455 308.701 660.754 304 654.955 304H572.955Z" fill="#757575"/>
<path d="M613.455 284C619.53 284 624.455 279.075 624.455 273C624.455 266.925 619.53 262 613.455 262C607.38 262 602.455 266.925 602.455 273C602.455 279.075 607.38 284 613.455 284Z" fill="#757575"/>
<path d="M604.846 337.963C609.979 335.353 616.806 337.262 618.682 343.02C619.486 345.489 619.22 348.222 617.6 350.31C615.94 352.45 613.354 353.604 610.665 353.335V356.335C614.021 356.552 617.388 357.763 619.748 360.231C621.894 362.475 622.976 365.881 622.107 368.916C621.265 371.858 618.447 374.045 615.395 374.203C612.352 374.361 609.338 372.412 608.197 369.588C607.484 367.82 604.581 368.592 605.305 370.385C607.859 376.709 615.649 379.295 621.245 375.092C626.955 370.803 626.375 362.362 621.451 357.691C618.534 354.924 614.622 353.591 610.665 353.335C608.718 353.209 608.774 356.146 610.665 356.335C614.238 356.692 617.762 354.958 619.937 352.154C622.122 349.336 622.67 345.603 621.574 342.223C619.089 334.555 610.226 331.867 603.332 335.372C601.611 336.247 603.127 338.837 604.846 337.963Z" fill="#757575"/>
<path d="M157.955 416H75.9551C69.0625 416 63.4551 410.393 63.4551 403.5V321.5C63.4551 314.607 69.0625 309 75.9551 309H157.955C164.848 309 170.455 314.607 170.455 321.5V403.5C170.455 410.393 164.848 416 157.955 416Z" fill="#3F3D56"/>
<path d="M127.008 322.554C132.012 319.939 133.949 313.763 131.334 308.759C131.071 308.255 130.763 307.792 130.432 307.352L144.024 216L123.931 216.129L115.547 305.807C112.073 308.843 110.982 313.958 113.213 318.228C115.828 323.232 122.004 325.168 127.008 322.554H127.008Z" fill="#FFB6B6"/>
<path d="M130.299 152.239C130.299 152.239 124.293 150.605 123.42 163.762C122.722 174.295 112.226 238.47 115.161 252.829C111.411 254.557 109.15 258.649 109.928 262.897L140.268 260.17C144.43 254.665 144.451 248.497 142.066 247.209L144.503 228.299L158.586 166.699L134.66 153.342L130.299 152.239Z" fill="#E6E6E6"/>
<path d="M150.197 556.698L161.727 556.698L167.212 512.227L150.195 512.227L150.197 556.698Z" fill="#FFB6B6"/>
<path d="M165.564 557.736V549.92L162.533 550.105L150.195 550.836L147.339 551.011L145.156 577.189L145.039 578.592H153.226L153.489 577.199L154.678 570.864L157.748 577.199L158.42 578.592H180.124C181.421 578.592 182.6 578.086 183.467 577.248C184.413 576.361 184.997 575.103 184.997 573.71C185.913 569.431 167.864 560.182 165.564 557.736H165.564Z" fill="#2F2E41"/>
<path d="M99.5742 543.456L112.456 546.001L124.456 505.001L111.525 500.621L99.5742 543.456Z" fill="#FFB6B6"/>
<path d="M114.096 548.587L116.197 541.058L113.228 540.422L101.147 537.81L98.3494 537.211L89.2106 561.838L88.7207 563.159L96.606 565.359L97.2341 564.088L100.082 558.305L101.336 565.232L101.609 566.755L122.515 572.589C123.763 572.938 125.035 572.766 126.096 572.192C127.245 571.592 128.146 570.538 128.521 569.196C130.553 565.321 115.654 551.561 114.096 548.587Z" fill="#2F2E41"/>
<path d="M207.301 306.07L207.598 302.951L194.774 267.793L140.124 278.331C140.124 278.331 111.957 313.029 118.221 335.995C119.919 342.224 123.55 415.638 122.457 417.999C97.283 472.371 104.316 510.724 104.316 510.724C104.316 510.724 112.272 517.663 125.901 521.102C129.457 521.999 156.498 400.022 156.498 400.022C156.498 400.022 155.306 407.634 153.645 419.208C148.514 454.962 140.453 526.941 147.615 530.668C157.095 535.601 166.164 534.686 166.164 534.686C166.164 534.686 195.72 445.877 189.457 424.999" fill="#2F2E41"/>
<path d="M180.455 155L163.576 136.848L150.745 136.102L133.455 154L127.044 172.082V172.082C119.868 189.514 118.226 208.731 122.343 227.128L132.19 271.141C132.19 271.141 133.707 276.327 129.732 276.95C125.758 277.573 126.234 285.218 126.234 285.218C126.234 285.218 127.044 291.844 123.184 292.427C119.325 293.011 109.034 293.011 118.039 304.589C127.044 316.167 198.271 272.376 198.271 272.376L198.616 218.094C198.616 218.094 218.679 191.148 197.073 175.715L180.455 155Z" fill="#E6E6E6"/>
<path d="M222.955 346H140.955C134.062 346 128.455 340.393 128.455 333.5V251.5C128.455 244.607 134.062 239 140.955 239H222.955C229.848 239 235.455 244.607 235.455 251.5V333.5C235.455 340.393 229.848 346 222.955 346Z" fill="#DC3545"/>
<path d="M210.503 305.673C214.28 301.477 213.942 295.013 209.746 291.235C209.324 290.855 208.873 290.528 208.41 290.231L189.288 199.875L170.502 207.003L193.921 293.975C191.724 298.032 192.485 303.206 196.065 306.43C200.261 310.207 206.725 309.868 210.503 305.673H210.503Z" fill="#FFB6B6"/>
<path d="M172.574 154.525C172.574 154.525 178.244 151.959 181.194 164.81C183.556 175.099 204.108 236.794 203.49 251.437C207.466 252.548 210.348 256.229 210.254 260.546L179.866 262.671C174.883 257.896 173.883 251.81 176.033 250.159L170.625 231.876L146.941 173.293L168.443 156.308L172.574 154.525V154.525Z" fill="#E6E6E6"/>
<path d="M203.241 562.977C205.307 563.106 206.449 560.539 204.886 559.043L204.731 558.425C204.751 558.376 204.772 558.326 204.792 558.277C206.882 553.295 213.962 553.329 216.034 558.319C217.872 562.747 220.213 567.182 220.79 571.865C221.048 573.931 220.932 576.037 220.473 578.065C224.781 568.654 227.048 558.378 227.048 548.044C227.048 545.448 226.906 542.851 226.615 540.261C226.376 538.143 226.047 536.037 225.621 533.951C223.315 522.674 218.322 511.933 211.121 502.961C207.659 501.069 204.772 498.111 203.028 494.565C202.401 493.286 201.91 491.91 201.678 490.509C202.072 490.56 203.163 484.56 202.866 484.192C203.415 483.359 204.398 482.944 204.998 482.131C207.98 478.088 212.089 478.794 214.234 484.289C218.816 486.601 218.86 490.437 216.049 494.126C214.26 496.472 214.014 499.648 212.445 502.16C212.606 502.367 212.774 502.567 212.936 502.774C215.897 506.572 218.458 510.654 220.617 514.943C220.006 510.176 220.907 504.434 222.443 500.733C224.191 496.516 227.468 492.964 230.353 489.318C233.819 484.939 240.927 486.85 241.537 492.401C241.543 492.455 241.549 492.509 241.555 492.563C241.126 492.804 240.706 493.061 240.296 493.332C237.957 494.88 238.765 498.506 241.537 498.934L241.6 498.944C241.445 500.488 241.18 502.018 240.793 503.523C244.494 517.839 236.503 523.053 225.091 523.287C224.839 523.417 224.594 523.546 224.342 523.668C225.498 526.924 226.422 530.263 227.106 533.647C227.72 536.638 228.146 539.661 228.385 542.696C228.682 546.526 228.656 550.376 228.333 554.199L228.353 554.064C229.173 549.853 231.46 545.919 234.779 543.194C239.725 539.131 246.712 537.635 252.048 534.369C254.616 532.797 257.907 534.829 257.459 537.806L257.437 537.949C256.643 538.272 255.868 538.647 255.118 539.066C254.69 539.308 254.27 539.565 253.86 539.836C251.52 541.384 252.329 545.01 255.101 545.438L255.164 545.448C255.209 545.454 255.248 545.461 255.293 545.467C253.93 548.703 252.031 551.706 249.654 554.296C247.34 566.794 237.398 567.979 226.764 564.34H226.758C225.595 569.404 223.896 574.351 221.713 579.066H203.693C203.628 578.866 203.57 578.659 203.512 578.459C205.178 578.562 206.858 578.465 208.498 578.162C207.161 576.521 205.824 574.868 204.487 573.227C204.455 573.195 204.429 573.163 204.403 573.13C203.725 572.291 203.041 571.458 202.362 570.618L202.362 570.617C202.32 568.039 202.629 565.47 203.241 562.977L203.241 562.977Z" fill="#757575"/>
<path d="M61.5909 564.977C59.525 565.106 58.3832 562.539 59.9462 561.043L60.1017 560.425C60.0813 560.376 60.0607 560.326 60.0399 560.277C57.9507 555.295 50.87 555.329 48.7986 560.319C46.96 564.747 44.6191 569.182 44.0428 573.865C43.7844 575.931 43.9006 578.037 44.3592 580.065C40.0512 570.654 37.7841 560.378 37.7841 550.044C37.7841 547.448 37.9262 544.851 38.2168 542.261C38.4558 540.143 38.7852 538.037 39.2116 535.951C41.5173 524.674 46.5101 513.933 53.7117 504.961C57.1736 503.069 60.0607 500.111 61.8046 496.565C62.4311 495.286 62.922 493.91 63.1545 492.509C62.7606 492.56 61.669 486.56 61.9661 486.192C61.4171 485.359 60.4343 484.944 59.8347 484.131C56.8524 480.088 52.7435 480.794 50.5985 486.289C46.0162 488.601 45.9719 492.437 48.7835 496.126C50.5723 498.472 50.8181 501.648 52.3876 504.16C52.2261 504.367 52.0582 504.567 51.8967 504.774C48.9356 508.572 46.3746 512.654 44.2157 516.943C44.8258 512.176 43.925 506.434 42.3893 502.733C40.6411 498.516 37.3643 494.964 34.4788 491.318C31.0128 486.939 23.9054 488.85 23.2948 494.401C23.2889 494.455 23.2831 494.509 23.2775 494.563C23.7061 494.804 24.126 495.061 24.5361 495.332C26.8756 496.88 26.0671 500.506 23.2951 500.934L23.2323 500.944C23.3873 502.488 23.6521 504.018 24.0396 505.523C20.3378 519.839 28.3297 525.053 39.7411 525.287C39.993 525.417 40.2385 525.546 40.4904 525.668C39.3342 528.924 38.4106 532.263 37.726 535.647C37.1124 538.638 36.6861 541.661 36.4471 544.696C36.15 548.526 36.1758 552.376 36.4988 556.199L36.4794 556.064C35.6592 551.853 33.3727 547.919 30.0528 545.194C25.1072 541.131 18.12 539.635 12.7846 536.369C10.2162 534.797 6.92511 536.829 7.37335 539.806L7.39517 539.949C8.1896 540.272 8.96464 540.647 9.71388 541.066C10.1425 541.308 10.5624 541.565 10.9725 541.836C13.312 543.384 12.5035 547.01 9.73145 547.438L9.66863 547.448C9.62343 547.454 9.58466 547.461 9.53952 547.467C10.9023 550.703 12.8012 553.706 15.1781 556.296C17.4927 568.794 27.4341 569.979 38.0683 566.34H38.0748C39.2373 571.404 40.936 576.351 43.1192 581.066H61.1393C61.204 580.866 61.2621 580.659 61.3202 580.459C59.6538 580.562 57.9745 580.465 56.3339 580.162C57.671 578.521 59.0079 576.868 60.3449 575.227C60.3772 575.195 60.4031 575.163 60.4289 575.13C61.1071 574.291 61.7917 573.458 62.4699 572.618L62.4702 572.617C62.5127 570.039 62.2037 567.47 61.5915 564.977L61.5909 564.977Z" fill="#757575"/>
<path d="M0 579.473C0 580.133 0.53003 580.663 1.19006 580.663H254.48C255.14 580.663 255.67 580.133 255.67 579.473C255.67 578.813 255.14 578.283 254.48 578.283H1.19006C0.53003 578.283 0 578.813 0 579.473Z" fill="#CCCCCC"/>
<path d="M163.487 124.234C176.983 124.234 187.923 113.293 187.923 99.7975C187.923 86.3018 176.983 75.3613 163.487 75.3613C149.991 75.3613 139.051 86.3018 139.051 99.7975C139.051 113.293 149.991 124.234 163.487 124.234Z" fill="#FFB6B6"/>
<path d="M186.344 98.8438C186.414 98.8438 186.584 98.8437 186.904 98.8538C187.834 98.9138 186.574 98.8637 186.344 98.8438Z" fill="#2F2E41"/>
<path d="M199.353 96.513C199.173 96.953 198.583 97.313 197.753 97.603C196.173 95.593 194.123 93.963 191.783 92.953C192.833 94.663 193.693 96.483 194.333 98.383C192.063 98.713 189.533 98.853 187.903 98.863C187.513 98.863 187.173 98.863 186.903 98.853C186.503 98.143 185.863 96.993 185.313 95.803C185.263 99.053 180.733 108.633 181.103 116.733C181.553 126.423 182.063 136.993 182.063 136.993C180.433 137.403 178.463 137.693 176.213 137.873C173.733 133.323 171.893 128.233 170.903 123.073C170.793 122.523 170.703 121.973 170.613 121.423C170.403 122.053 170.203 122.693 170.033 123.343C169.283 126.043 168.843 128.953 168.703 131.973C168.603 133.963 168.643 135.983 168.793 138.033C156.453 140.543 141.193 140.283 130.153 134.153C130.523 133.143 130.803 132.103 130.983 131.043C131.583 127.563 126.743 127.073 123.523 129.203C120.303 125.973 117.863 121.873 116.543 116.743C137.583 107.513 115.433 96.153 131.683 79.783C129.723 65.563 168.983 61.453 176.583 74.093C178.243 72.833 183.413 72.893 185.613 73.813C187.813 74.733 189.513 76.283 191.173 77.783C192.283 78.803 191.763 80.833 191.053 82.353C194.543 80.683 202.333 89.363 199.353 96.513V96.513Z" fill="#2F2E41"/>
</g>
<defs>
<clipPath id="clip0_25_528">
<rect width="667.456" height="581.065" fill="white"/>
</clipPath>
</defs>
</svg>
